<svg width="64" height="64" viewBox="0 0 64 64" fill="none" xmlns="http://www.w3.org/2000/svg">
<g clip-path="url(#clip0_1_2)">
<path d="M0 8C0 3.58172 3.58172 0 8 0H56C60.4183 0 64 3.58172 64 8V56C64 60.4183 60.4183 64 56 64H8C3.58172 64 0 60.4183 0 56V8Z" fill="#22252C"/>
<path d="M56.936 43.512C57.4213 43.512 57.7947 43.736 58.056 44.184C58.3547 44.632 58.504 45.248 58.504 46.032C58.504 47.488 58.1493 48.6453 57.44 49.504C55.648 51.6693 53.8373 53.3493 52.008 54.544C50.1787 55.7013 48.0133 56.28 45.512 56.28C43.0853 56.28 41.0133 55.6267 39.296 54.32C37.616 53.0133 36.0107 50.7733 34.48 47.6C33.248 45.0613 32.2773 43.1947 31.568 42C30.8587 40.768 30.1493 39.8907 29.44 39.368C28.768 38.8453 27.928 38.528 26.92 38.416C26.7707 39.2 26.3413 41.664 25.632 45.808C25.3333 47.6747 25.1467 48.8133 25.072 49.224C24.6987 51.5013 23.952 53.256 22.832 54.488C21.712 55.6827 20.0133 56.28 17.736 56.28C15.2347 56.28 13.0133 55.552 11.072 54.096C9.168 52.6027 7.69333 50.5493 6.648 47.936C5.60267 45.2853 5.08 42.28 5.08 38.92C5.08 32.648 6.16267 27.2347 8.328 22.68C10.5307 18.1253 13.592 14.6533 17.512 12.264C21.4693 9.83733 26.024 8.624 31.176 8.624C34.76 8.624 37.7653 9.16533 40.192 10.248C42.6187 11.3307 44.4107 12.824 45.568 14.728C46.7627 16.632 47.36 18.7787 47.36 21.168C47.36 23.2587 46.856 25.312 45.848 27.328C44.8773 29.3067 43.4027 31.0613 41.424 32.592C39.4453 34.1227 37.0373 35.2613 34.2 36.008C35.992 36.4933 37.3733 37.2773 38.344 38.36C39.3147 39.4427 40.2853 41.0293 41.256 43.12C42.3013 45.36 43.328 47.0027 44.336 48.048C45.3813 49.0933 46.576 49.616 47.92 49.616C49.1147 49.616 50.2533 49.224 51.336 48.44C52.4187 47.6187 53.7813 46.2373 55.424 44.296C55.872 43.7733 56.376 43.512 56.936 43.512ZM19.192 38.36C17.9227 38.36 17.0453 38.0613 16.56 37.464C16.112 36.8667 15.888 36.1947 15.888 35.448C15.888 34.552 16.168 33.8427 16.728 33.32C17.3253 32.7973 17.9973 32.536 18.744 32.536H20.144C20.7413 28.8773 21.3013 25.7227 21.824 23.072C22.3093 20.6453 23.8773 19.432 26.528 19.432C28.656 19.432 29.72 20.384 29.72 22.288C29.72 22.6987 29.7013 23.016 29.664 23.24L27.984 32.536C30 32.424 31.8293 31.9387 33.472 31.08C35.152 30.2213 36.4773 29.0267 37.448 27.496C38.456 25.9653 38.96 24.2293 38.96 22.288C38.96 19.936 38.1573 18.088 36.552 16.744C34.9467 15.4 32.5947 14.728 29.496 14.728C25.8373 14.728 22.6267 15.6427 19.864 17.472C17.1387 19.264 15.0107 21.952 13.48 25.536C11.9493 29.0827 11.184 33.4133 11.184 38.528C11.184 40.9173 11.4267 42.9707 11.912 44.688C12.3973 46.4053 12.9947 47.6933 13.704 48.552C14.4133 49.4107 15.0853 49.84 15.72 49.84C16.2053 49.84 16.5973 49.5973 16.896 49.112C17.232 48.6267 17.4933 47.8427 17.68 46.76L19.192 38.36Z" fill="url(#paint0_linear_1_2)"/>
</g>
<defs>
<linearGradient id="paint0_linear_1_2" x1="2" y1="32" x2="52" y2="32" gradientUnits="userSpaceOnUse">
<stop stop-color="#17D396"/>
<stop offset="1" stop-color="#07F7F7"/>
</linearGradient>
<clipPath id="clip0_1_2">
<path d="M0 8C0 3.58172 3.58172 0 8 0H56C60.4183 0 64 3.58172 64 8V56C64 60.4183 60.4183 64 56 64H8C3.58172 64 0 60.4183 0 56V8Z" fill="white"/>
</clipPath>
</defs>
</svg>
